<?xml version="1.0" encoding="utf-8" standalone="no"?>
<!DOCTYPE svg PUBLIC "-//W3C//DTD SVG 1.1//EN"
  "http://www.w3.org/Graphics/SVG/1.1/DTD/svg11.dtd">
<svg xmlns:xlink="http://www.w3.org/1999/xlink" width="230.15952pt" height="140.15952pt" viewBox="0 0 230.15952 140.15952" xmlns="http://www.w3.org/2000/svg" version="1.1">
 <metadata>
  <rdf:RDF xmlns:dc="http://purl.org/dc/elements/1.1/" xmlns:cc="http://creativecommons.org/ns#" xmlns:rdf="http://www.w3.org/1999/02/22-rdf-syntax-ns#">
   <cc:Work>
    <dc:type rdf:resource="http://purl.org/dc/dcmitype/StillImage"/>
    <dc:date>2026-04-27T22:45:15.779784</dc:date>
    <dc:format>image/svg+xml</dc:format>
    <dc:creator>
     <cc:Agent>
      <dc:title>Matplotlib v3.10.8, https://matplotlib.org/</dc:title>
     </cc:Agent>
    </dc:creator>
   </cc:Work>
  </rdf:RDF>
 </metadata>
 <defs>
  <style type="text/css">*{stroke-linejoin: round; stroke-linecap: butt}</style>
 </defs>
 <g id="figure_1">
  <g id="patch_1">
   <path d="M -0 140.15952 
L 230.15952 140.15952 
L 230.15952 0 
L -0 0 
z
" style="fill: #ffffff"/>
  </g>
  <g id="axes_1">
   <g id="patch_2">
    <path d="M 24.08 118.523364 
L 229.07952 118.523364 
L 229.07952 1.08 
L 24.08 1.08 
z
" style="fill: #ffffff"/>
   </g>
   <g id="patch_3">
    <path d="M 33.39816 118.523364 
L 70.6708 118.523364 
L 70.6708 92.122282 
L 33.39816 92.122282 
z
" clip-path="url(#pb48f8f9151)" style="fill: #1f77b4"/>
   </g>
   <g id="patch_4">
    <path d="M 107.94344 118.523364 
L 145.21608 118.523364 
L 145.21608 112.724674 
L 107.94344 112.724674 
z
" clip-path="url(#pb48f8f9151)" style="fill: #ff7f0e"/>
   </g>
   <g id="patch_5">
    <path d="M 182.48872 118.523364 
L 219.76136 118.523364 
L 219.76136 6.672541 
L 182.48872 6.672541 
z
" clip-path="url(#pb48f8f9151)" style="fill: #2ca02c"/>
   </g>
   <g id="matplotlib.axis_1">
    <g id="xtick_1">
     <g id="line2d_1">
      <defs>
       <path id="m0d1d216108" d="M 0 0 
L 0 3.5 
" style="stroke: #000000; stroke-width: 0.8"/>
      </defs>
      <g>
       <use xlink:href="#m0d1d216108" x="52.03448" y="118.523364" style="stroke: #000000; stroke-width: 0.8"/>
      </g>
     </g>
     <g id="text_1">
      <!-- HFDC -->
      <g transform="translate(42.699871 130.304145) scale(0.07 -0.07)">
       <defs>
        <path id="NimbusRoman-Regular-48" d="M 122 0 
L 1901 0 
L 1901 122 
C 1421 160 1344 237 1338 698 
L 1338 2016 
L 3277 2016 
L 3277 768 
C 3270 224 3213 154 2714 122 
L 2714 0 
L 4493 0 
L 4493 122 
C 4013 160 3936 237 3930 698 
L 3930 3539 
C 3936 4006 4000 4070 4493 4115 
L 4493 4237 
L 2714 4237 
L 2714 4115 
C 3206 4077 3270 4013 3277 3539 
L 3277 2298 
L 1338 2298 
L 1338 3539 
C 1344 4006 1408 4070 1901 4115 
L 1901 4237 
L 122 4237 
L 122 4115 
C 614 4077 678 4013 685 3539 
L 685 768 
C 678 224 621 154 122 122 
L 122 0 
z
" transform="scale(0.015625)"/>
        <path id="NimbusRoman-Regular-46" d="M 3066 1478 
L 3066 2963 
L 2918 2963 
C 2848 2458 2739 2368 2214 2355 
L 1286 2355 
L 1286 3776 
C 1293 3968 1312 3987 1491 3994 
L 2362 3994 
C 3104 3981 3232 3891 3334 3322 
L 3494 3322 
L 3475 4237 
L 77 4237 
L 77 4115 
C 544 4083 621 4000 634 3539 
L 634 768 
C 627 224 563 154 77 122 
L 77 0 
L 1869 0 
L 1869 122 
C 1382 141 1293 230 1286 698 
L 1286 2093 
L 2214 2093 
C 2739 2086 2842 1997 2918 1478 
L 3066 1478 
z
" transform="scale(0.015625)"/>
        <path id="NimbusRoman-Regular-44" d="M 102 0 
L 1920 0 
C 2662 0 3334 211 3731 570 
C 4147 947 4384 1517 4384 2138 
C 4384 2714 4198 3213 3840 3565 
C 3405 4006 2707 4237 1830 4237 
L 102 4237 
L 102 4115 
C 608 4070 659 4019 666 3539 
L 666 698 
C 659 230 582 154 102 122 
L 102 0 
z
M 1318 3750 
C 1318 3949 1382 4000 1651 4000 
C 2208 4000 2618 3898 2925 3680 
C 3424 3334 3686 2784 3686 2093 
C 3686 1338 3424 800 2906 499 
C 2579 314 2208 237 1651 237 
C 1395 237 1318 294 1318 499 
L 1318 3750 
z
" transform="scale(0.015625)"/>
        <path id="NimbusRoman-Regular-43" d="M 3968 2886 
L 3910 4326 
L 3776 4326 
C 3738 4192 3635 4115 3507 4115 
C 3450 4115 3354 4134 3258 4166 
C 2944 4275 2624 4326 2323 4326 
C 1798 4326 1267 4128 870 3776 
C 422 3379 179 2790 179 2086 
C 179 781 1030 -90 2304 -90 
C 3027 -90 3667 205 4051 723 
L 3936 838 
C 3469 384 3040 192 2509 192 
C 2106 192 1747 320 1472 563 
C 1120 877 922 1453 922 2170 
C 922 3328 1517 4070 2445 4070 
C 2810 4070 3142 3936 3398 3686 
C 3603 3482 3699 3302 3821 2886 
L 3968 2886 
z
" transform="scale(0.015625)"/>
       </defs>
       <use xlink:href="#NimbusRoman-Regular-48"/>
       <use xlink:href="#NimbusRoman-Regular-46" transform="translate(72.199982 0)"/>
       <use xlink:href="#NimbusRoman-Regular-44" transform="translate(127.799973 0)"/>
       <use xlink:href="#NimbusRoman-Regular-43" transform="translate(199.999954 0)"/>
      </g>
     </g>
    </g>
    <g id="xtick_2">
     <g id="line2d_2">
      <g>
       <use xlink:href="#m0d1d216108" x="126.57976" y="118.523364" style="stroke: #000000; stroke-width: 0.8"/>
      </g>
     </g>
     <g id="text_2">
      <!-- HFDC+PPO -->
      <g transform="translate(108.85226 130.304145) scale(0.07 -0.07)">
       <defs>
        <path id="NimbusRoman-Regular-2b" d="M 1594 1830 
L 192 1830 
L 192 1408 
L 1594 1408 
L 1594 0 
L 2016 0 
L 2016 1408 
L 3418 1408 
L 3418 1830 
L 2016 1830 
L 2016 3238 
L 1594 3238 
L 1594 1830 
z
" transform="scale(0.015625)"/>
        <path id="NimbusRoman-Regular-50" d="M 102 4115 
C 576 4064 634 4006 640 3539 
L 640 768 
C 634 224 589 166 102 122 
L 102 0 
L 1894 0 
L 1894 122 
C 1389 134 1299 224 1293 698 
L 1293 1862 
C 1459 1850 1568 1843 1734 1843 
C 2240 1843 2579 1907 2854 2061 
C 3238 2266 3469 2656 3469 3078 
C 3469 3347 3379 3590 3206 3776 
C 2950 4058 2394 4237 1792 4237 
L 102 4237 
L 102 4115 
z
M 1293 3782 
C 1293 3955 1338 4000 1510 4000 
C 2374 4000 2771 3699 2771 3040 
C 2771 2419 2394 2099 1658 2099 
C 1530 2099 1440 2106 1293 2118 
L 1293 3782 
z
" transform="scale(0.015625)"/>
        <path id="NimbusRoman-Regular-4f" d="M 2310 4326 
C 1088 4326 218 3411 218 2118 
C 218 1517 422 928 768 563 
C 1139 160 1709 -90 2272 -90 
C 3533 -90 4403 800 4403 2093 
C 4403 2726 4218 3277 3866 3654 
C 3462 4096 2925 4326 2310 4326 
z
M 2310 4096 
C 2605 4096 2899 3981 3130 3776 
C 3475 3462 3674 2861 3674 2099 
C 3674 1722 3597 1280 3462 947 
C 3405 787 3296 627 3149 480 
C 2925 256 2637 141 2298 141 
C 2003 141 1715 256 1485 454 
C 1158 749 947 1395 947 2106 
C 947 2758 1126 3379 1395 3680 
C 1645 3955 1958 4096 2310 4096 
z
" transform="scale(0.015625)"/>
       </defs>
       <use xlink:href="#NimbusRoman-Regular-48"/>
       <use xlink:href="#NimbusRoman-Regular-46" transform="translate(72.199982 0)"/>
       <use xlink:href="#NimbusRoman-Regular-44" transform="translate(127.799973 0)"/>
       <use xlink:href="#NimbusRoman-Regular-43" transform="translate(199.999954 0)"/>
       <use xlink:href="#NimbusRoman-Regular-2b" transform="translate(266.699951 0)"/>
       <use xlink:href="#NimbusRoman-Regular-50" transform="translate(323.099945 0)"/>
       <use xlink:href="#NimbusRoman-Regular-50" transform="translate(378.699936 0)"/>
       <use xlink:href="#NimbusRoman-Regular-4f" transform="translate(434.299927 0)"/>
      </g>
      <!-- (Exp-A) -->
      <g transform="translate(114.918197 137.560301) scale(0.07 -0.07)">
       <defs>
        <path id="NimbusRoman-Regular-28" d="M 1888 4326 
C 1414 4013 1222 3853 986 3558 
C 531 3002 307 2362 307 1613 
C 307 794 544 173 1107 -480 
C 1370 -787 1536 -928 1869 -1133 
L 1946 -1030 
C 1434 -627 1254 -397 1082 77 
C 928 506 858 986 858 1632 
C 858 2304 941 2835 1114 3226 
C 1293 3622 1485 3853 1946 4224 
L 1888 4326 
z
" transform="scale(0.015625)"/>
        <path id="NimbusRoman-Regular-45" d="M 3821 1082 
L 3642 1082 
C 3334 403 3046 243 2131 237 
L 1958 237 
C 1293 256 1286 262 1286 512 
L 1286 2093 
L 2272 2093 
C 2810 2080 2893 2003 2976 1478 
L 3123 1478 
L 3123 2963 
L 2976 2963 
C 2899 2445 2810 2368 2272 2355 
L 1286 2355 
L 1286 3776 
C 1293 3968 1318 3994 1498 3994 
L 2362 3994 
C 3104 3981 3232 3891 3334 3322 
L 3494 3322 
L 3475 4237 
L 77 4237 
L 77 4115 
C 544 4083 621 4000 634 3539 
L 634 698 
C 621 237 538 147 77 122 
L 77 0 
L 3533 0 
L 3821 1082 
z
" transform="scale(0.015625)"/>
        <path id="NimbusRoman-Regular-78" d="M 1779 0 
L 3066 0 
L 3066 96 
C 2867 96 2739 198 2541 480 
L 1722 1734 
L 2253 2502 
C 2374 2675 2560 2771 2771 2784 
L 2771 2880 
L 1760 2880 
L 1760 2784 
C 1952 2771 2016 2733 2016 2643 
C 2016 2566 1939 2426 1779 2227 
C 1747 2189 1670 2074 1587 1946 
L 1536 2022 
C 1440 2170 1382 2253 1370 2278 
C 1248 2477 1203 2579 1203 2643 
C 1203 2739 1286 2778 1478 2784 
L 1478 2880 
L 154 2880 
L 154 2784 
L 211 2784 
C 403 2784 506 2701 704 2400 
L 1306 1478 
L 576 422 
C 384 160 320 115 109 96 
L 109 0 
L 1037 0 
L 1037 96 
C 851 96 781 128 781 211 
C 781 256 819 339 909 474 
L 1414 1261 
L 1997 365 
C 2022 326 2035 294 2035 250 
C 2035 134 1990 109 1779 96 
L 1779 0 
z
" transform="scale(0.015625)"/>
        <path id="NimbusRoman-Regular-70" d="M 32 -1389 
L 1581 -1389 
L 1581 -1274 
C 1101 -1267 1024 -1203 1018 -794 
L 1018 211 
C 1248 0 1395 -64 1664 -64 
C 2426 -64 3008 653 3008 1581 
C 3008 2374 2560 2944 1939 2944 
C 1581 2944 1299 2790 1018 2438 
L 1018 2931 
L 979 2944 
C 634 2810 410 2726 58 2618 
L 58 2515 
C 115 2522 154 2522 218 2522 
C 435 2522 480 2458 480 2157 
L 480 -838 
C 480 -1178 410 -1242 32 -1280 
L 32 -1389 
z
M 1018 2138 
C 1018 2330 1376 2560 1670 2560 
C 2144 2560 2458 2074 2458 1325 
C 2458 621 2144 141 1683 141 
C 1382 141 1018 371 1018 563 
L 1018 2138 
z
" transform="scale(0.015625)"/>
        <path id="NimbusRoman-Regular-2d" d="M 250 1645 
L 250 1242 
L 1824 1242 
L 1824 1645 
L 250 1645 
z
" transform="scale(0.015625)"/>
        <path id="NimbusRoman-Regular-41" d="M 4518 122 
C 4230 141 4166 205 3942 678 
L 2349 4314 
L 2221 4314 
L 890 1171 
C 480 237 403 134 96 122 
L 96 0 
L 1363 0 
L 1363 122 
C 1056 122 928 198 928 384 
C 928 461 947 550 979 634 
L 1274 1382 
L 2950 1382 
L 3213 768 
C 3290 595 3334 429 3334 339 
C 3334 179 3226 128 2886 122 
L 2886 0 
L 4518 0 
L 4518 122 
z
M 1382 1645 
L 2118 3405 
L 2861 1645 
L 1382 1645 
z
" transform="scale(0.015625)"/>
        <path id="NimbusRoman-Regular-29" d="M 243 -1133 
C 717 -819 909 -659 1146 -365 
C 1600 192 1824 832 1824 1581 
C 1824 2400 1587 3021 1024 3674 
C 762 3981 595 4122 262 4326 
L 186 4224 
C 698 3821 870 3597 1050 3117 
C 1203 2688 1274 2208 1274 1562 
C 1274 890 1190 365 1018 -26 
C 845 -422 646 -659 186 -1030 
L 243 -1133 
z
" transform="scale(0.015625)"/>
       </defs>
       <use xlink:href="#NimbusRoman-Regular-28"/>
       <use xlink:href="#NimbusRoman-Regular-45" transform="translate(33.299988 0)"/>
       <use xlink:href="#NimbusRoman-Regular-78" transform="translate(94.399979 0)"/>
       <use xlink:href="#NimbusRoman-Regular-70" transform="translate(144.399963 0)"/>
       <use xlink:href="#NimbusRoman-Regular-2d" transform="translate(194.399948 0)"/>
       <use xlink:href="#NimbusRoman-Regular-41" transform="translate(227.699936 0)"/>
       <use xlink:href="#NimbusRoman-Regular-29" transform="translate(299.899918 0)"/>
      </g>
     </g>
    </g>
    <g id="xtick_3">
     <g id="line2d_3">
      <g>
       <use xlink:href="#m0d1d216108" x="201.12504" y="118.523364" style="stroke: #000000; stroke-width: 0.8"/>
      </g>
     </g>
     <g id="text_3">
      <!-- HFDC+PPO -->
      <g transform="translate(183.39754 130.304145) scale(0.07 -0.07)">
       <use xlink:href="#NimbusRoman-Regular-48"/>
       <use xlink:href="#NimbusRoman-Regular-46" transform="translate(72.199982 0)"/>
       <use xlink:href="#NimbusRoman-Regular-44" transform="translate(127.799973 0)"/>
       <use xlink:href="#NimbusRoman-Regular-43" transform="translate(199.999954 0)"/>
       <use xlink:href="#NimbusRoman-Regular-2b" transform="translate(266.699951 0)"/>
       <use xlink:href="#NimbusRoman-Regular-50" transform="translate(323.099945 0)"/>
       <use xlink:href="#NimbusRoman-Regular-50" transform="translate(378.699936 0)"/>
       <use xlink:href="#NimbusRoman-Regular-4f" transform="translate(434.299927 0)"/>
      </g>
      <!-- (Exp-B) -->
      <g transform="translate(189.655977 137.560301) scale(0.07 -0.07)">
       <defs>
        <path id="NimbusRoman-Regular-42" d="M 109 4115 
C 646 4083 717 4019 723 3539 
L 723 698 
C 717 218 634 141 109 122 
L 109 0 
L 2246 0 
C 2739 0 3200 134 3437 352 
C 3667 557 3795 845 3795 1152 
C 3795 1434 3686 1690 3482 1875 
C 3290 2048 3117 2125 2701 2227 
C 3034 2310 3168 2374 3322 2509 
C 3482 2650 3578 2880 3578 3149 
C 3578 3866 3002 4237 1901 4237 
L 109 4237 
L 109 4115 
z
M 1376 2086 
C 1997 2086 2291 2048 2522 1952 
C 2886 1805 3059 1542 3059 1146 
C 3059 800 2925 550 2669 403 
C 2464 288 2202 237 1779 237 
C 1466 237 1376 294 1376 499 
L 1376 2086 
z
M 1376 2336 
L 1376 3808 
C 1382 3949 1408 3987 1517 3994 
L 1798 4000 
C 2509 4019 2925 3693 2925 3123 
C 2925 2618 2598 2349 1984 2342 
L 1376 2336 
z
" transform="scale(0.015625)"/>
       </defs>
       <use xlink:href="#NimbusRoman-Regular-28"/>
       <use xlink:href="#NimbusRoman-Regular-45" transform="translate(33.299988 0)"/>
       <use xlink:href="#NimbusRoman-Regular-78" transform="translate(94.399979 0)"/>
       <use xlink:href="#NimbusRoman-Regular-70" transform="translate(144.399963 0)"/>
       <use xlink:href="#NimbusRoman-Regular-2d" transform="translate(194.399948 0)"/>
       <use xlink:href="#NimbusRoman-Regular-42" transform="translate(227.699936 0)"/>
       <use xlink:href="#NimbusRoman-Regular-29" transform="translate(294.399933 0)"/>
      </g>
     </g>
    </g>
   </g>
   <g id="matplotlib.axis_2">
    <g id="ytick_1">
     <g id="line2d_4">
      <defs>
       <path id="m1810e243b0" d="M 0 0 
L -3.5 0 
" style="stroke: #000000; stroke-width: 0.8"/>
      </defs>
      <g>
       <use xlink:href="#m1810e243b0" x="24.08" y="118.523364" style="stroke: #000000; stroke-width: 0.8"/>
      </g>
     </g>
     <g id="text_4">
      <!-- 0 -->
      <g transform="translate(13.08 121.255239) scale(0.08 -0.08)">
       <defs>
        <path id="NimbusRoman-Regular-30" d="M 1626 4326 
C 1274 4326 1005 4224 768 3994 
C 397 3635 154 2899 154 2150 
C 154 1446 365 704 666 346 
C 902 64 1229 -90 1600 -90 
C 1926 -90 2202 19 2432 243 
C 2803 595 3046 1338 3046 2112 
C 3046 3424 2464 4326 1626 4326 
z
M 1606 4160 
C 2144 4160 2432 3437 2432 2099 
C 2432 762 2150 77 1600 77 
C 1050 77 768 762 768 2093 
C 768 3456 1056 4160 1606 4160 
z
" transform="scale(0.015625)"/>
       </defs>
       <use xlink:href="#NimbusRoman-Regular-30"/>
      </g>
     </g>
    </g>
    <g id="ytick_2">
     <g id="line2d_5">
      <g>
       <use xlink:href="#m1810e243b0" x="24.08" y="90.476364" style="stroke: #000000; stroke-width: 0.8"/>
      </g>
     </g>
     <g id="text_5">
      <!-- 2 -->
      <g transform="translate(13.08 93.208239) scale(0.08 -0.08)">
       <defs>
        <path id="NimbusRoman-Regular-32" d="M 3040 877 
L 2957 909 
C 2720 538 2650 493 2349 486 
L 819 486 
L 1894 1613 
C 2464 2208 2714 2694 2714 3194 
C 2714 3834 2195 4326 1530 4326 
C 1178 4326 845 4186 608 3930 
C 403 3712 307 3507 198 3053 
L 333 3021 
C 589 3648 813 3853 1261 3853 
C 1805 3853 2163 3488 2163 2950 
C 2163 2445 1869 1856 1331 1286 
L 192 77 
L 192 0 
L 2688 0 
L 3040 877 
z
" transform="scale(0.015625)"/>
       </defs>
       <use xlink:href="#NimbusRoman-Regular-32"/>
      </g>
     </g>
    </g>
    <g id="ytick_3">
     <g id="line2d_6">
      <g>
       <use xlink:href="#m1810e243b0" x="24.08" y="62.429364" style="stroke: #000000; stroke-width: 0.8"/>
      </g>
     </g>
     <g id="text_6">
      <!-- 4 -->
      <g transform="translate(13.08 65.161239) scale(0.08 -0.08)">
       <defs>
        <path id="NimbusRoman-Regular-34" d="M 3021 1478 
L 2368 1478 
L 2368 4326 
L 2086 4326 
L 77 1478 
L 77 1069 
L 1875 1069 
L 1875 0 
L 2368 0 
L 2368 1069 
L 3021 1069 
L 3021 1478 
z
M 1869 1478 
L 333 1478 
L 1869 3674 
L 1869 1478 
z
" transform="scale(0.015625)"/>
       </defs>
       <use xlink:href="#NimbusRoman-Regular-34"/>
      </g>
     </g>
    </g>
    <g id="ytick_4">
     <g id="line2d_7">
      <g>
       <use xlink:href="#m1810e243b0" x="24.08" y="34.382365" style="stroke: #000000; stroke-width: 0.8"/>
      </g>
     </g>
     <g id="text_7">
      <!-- 6 -->
      <g transform="translate(13.08 37.11424) scale(0.08 -0.08)">
       <defs>
        <path id="NimbusRoman-Regular-36" d="M 2854 4378 
C 2125 4314 1754 4192 1286 3866 
C 595 3373 218 2643 218 1786 
C 218 1229 390 666 666 346 
C 909 64 1254 -90 1651 -90 
C 2445 -90 2995 518 2995 1402 
C 2995 2227 2534 2739 1786 2739 
C 1504 2739 1376 2694 973 2451 
C 1146 3418 1862 4109 2867 4275 
L 2854 4378 
z
M 1549 2445 
C 2106 2445 2419 1984 2419 1184 
C 2419 480 2170 90 1722 90 
C 1158 90 813 691 813 1683 
C 813 2010 864 2189 992 2285 
C 1126 2387 1325 2445 1549 2445 
z
" transform="scale(0.015625)"/>
       </defs>
       <use xlink:href="#NimbusRoman-Regular-36"/>
      </g>
     </g>
    </g>
    <g id="ytick_5">
     <g id="line2d_8">
      <g>
       <use xlink:href="#m1810e243b0" x="24.08" y="6.335365" style="stroke: #000000; stroke-width: 0.8"/>
      </g>
     </g>
     <g id="text_8">
      <!-- 8 -->
      <g transform="translate(13.08 9.06724) scale(0.08 -0.08)">
       <defs>
        <path id="NimbusRoman-Regular-38" d="M 1856 2374 
C 2496 2720 2714 2982 2714 3418 
C 2714 3949 2259 4326 1613 4326 
C 915 4326 397 3898 397 3315 
C 397 2899 518 2714 1190 2125 
C 493 1594 358 1408 358 966 
C 358 339 858 -90 1587 -90 
C 2355 -90 2848 333 2848 992 
C 2848 1485 2630 1792 1856 2374 
z
M 1741 1715 
C 2208 1382 2362 1152 2362 794 
C 2362 378 2074 90 1658 90 
C 1171 90 845 461 845 1011 
C 845 1427 979 1690 1357 1997 
L 1741 1715 
z
M 1670 2490 
C 1101 2861 870 3155 870 3514 
C 870 3885 1158 4147 1562 4147 
C 1997 4147 2272 3866 2272 3424 
C 2272 3034 2106 2778 1670 2490 
z
" transform="scale(0.015625)"/>
       </defs>
       <use xlink:href="#NimbusRoman-Regular-38"/>
      </g>
     </g>
    </g>
    <g id="text_9">
     <!-- Mean $|e_F|$ [N] -->
     <g transform="translate(7.08 82.601682) rotate(-90) scale(0.08 -0.08)">
      <defs>
       <path id="NimbusRoman-Regular-4d" d="M 5523 4237 
L 4250 4237 
L 2835 1005 
L 1357 4237 
L 90 4237 
L 90 4115 
C 614 4090 685 4019 698 3539 
L 698 941 
C 685 262 602 154 77 122 
L 77 0 
L 1581 0 
L 1581 122 
C 1088 147 992 282 979 941 
L 979 3520 
L 2586 0 
L 2675 0 
L 4314 3667 
L 4314 768 
C 4307 224 4237 154 3731 122 
L 3731 0 
L 5523 0 
L 5523 122 
C 5062 147 4979 237 4966 698 
L 4966 3539 
C 4979 4000 5056 4083 5523 4115 
L 5523 4237 
z
" transform="scale(0.015625)"/>
       <path id="NimbusRoman-Regular-65" d="M 2611 1050 
C 2304 563 2029 378 1619 378 
C 1254 378 979 563 794 928 
C 678 1171 634 1376 621 1773 
L 2592 1773 
C 2541 2189 2477 2374 2317 2579 
C 2125 2810 1830 2944 1498 2944 
C 1178 2944 877 2829 634 2611 
C 333 2349 160 1894 160 1370 
C 160 486 621 -64 1357 -64 
C 1965 -64 2445 314 2714 1005 
L 2611 1050 
z
M 634 1978 
C 704 2477 922 2714 1312 2714 
C 1702 2714 1856 2534 1939 1978 
L 634 1978 
z
" transform="scale(0.015625)"/>
       <path id="NimbusRoman-Regular-61" d="M 2829 422 
C 2720 333 2643 301 2547 301 
C 2400 301 2355 390 2355 672 
L 2355 1920 
C 2355 2253 2323 2438 2227 2592 
C 2086 2822 1811 2944 1434 2944 
C 832 2944 358 2630 358 2227 
C 358 2080 480 1952 634 1952 
C 787 1952 922 2080 922 2221 
C 922 2246 915 2278 909 2323 
C 896 2381 890 2432 890 2477 
C 890 2650 1094 2790 1350 2790 
C 1664 2790 1837 2605 1837 2259 
L 1837 1869 
C 858 1478 742 1421 467 1178 
C 326 1050 237 832 237 621 
C 237 218 518 -64 909 -64 
C 1190 -64 1453 70 1843 403 
C 1875 64 1990 -64 2253 -64 
C 2470 -64 2605 13 2829 256 
L 2829 422 
z
M 1837 787 
C 1837 595 1805 525 1670 448 
C 1510 358 1338 307 1203 307 
C 979 307 800 525 800 800 
L 800 826 
C 806 1210 1088 1453 1837 1715 
L 1837 787 
z
" transform="scale(0.015625)"/>
       <path id="NimbusRoman-Regular-6e" d="M 115 0 
L 1472 0 
L 1472 96 
C 1152 115 1050 198 1050 429 
L 1050 2227 
C 1357 2515 1498 2592 1709 2592 
C 2022 2592 2176 2394 2176 1971 
L 2176 634 
C 2163 218 2086 115 1773 96 
L 1773 0 
L 3104 0 
L 3104 96 
C 2790 128 2720 205 2714 518 
L 2714 1984 
C 2714 2586 2432 2944 1958 2944 
C 1664 2944 1466 2835 1030 2426 
L 1030 2931 
L 986 2944 
C 653 2822 435 2752 102 2656 
L 102 2547 
C 147 2566 205 2573 275 2573 
C 454 2573 512 2477 512 2163 
L 512 576 
C 506 198 435 115 115 96 
L 115 0 
z
" transform="scale(0.015625)"/>
       <path id="NimbusRoman-Regular-20" transform="scale(0.015625)"/>
       <path id="Cmsy10-6a" d="M 763 -1484 
L 763 4684 
Q 763 4734 800 4767 
Q 838 4800 891 4800 
Q 938 4800 978 4767 
Q 1019 4734 1019 4684 
L 1019 -1484 
Q 1019 -1534 978 -1567 
Q 938 -1600 891 -1600 
Q 838 -1600 800 -1567 
Q 763 -1534 763 -1484 
z
" transform="scale(0.015625)"/>
       <path id="Cmmi10-65" d="M 1288 -72 
Q 981 -72 751 87 
Q 522 247 401 517 
Q 281 788 281 1088 
Q 281 1544 511 1945 
Q 741 2347 1134 2587 
Q 1528 2828 1978 2828 
Q 2253 2828 2458 2686 
Q 2663 2544 2663 2278 
Q 2663 1909 2369 1729 
Q 2075 1550 1706 1508 
Q 1338 1466 891 1466 
L 872 1466 
Q 769 1084 769 813 
Q 769 528 900 312 
Q 1031 97 1300 97 
Q 1681 97 2032 272 
Q 2384 447 2606 756 
Q 2625 775 2656 775 
Q 2688 775 2720 739 
Q 2753 703 2753 672 
Q 2753 647 2741 634 
Q 2506 306 2109 117 
Q 1713 -72 1288 -72 
z
M 909 1631 
Q 1281 1631 1597 1665 
Q 1913 1700 2169 1839 
Q 2425 1978 2425 2272 
Q 2425 2391 2359 2480 
Q 2294 2569 2189 2616 
Q 2084 2663 1972 2663 
Q 1700 2663 1483 2516 
Q 1266 2369 1125 2133 
Q 984 1897 909 1631 
z
" transform="scale(0.015625)"/>
       <path id="Cmmi10-46" d="M 300 0 
Q 238 0 238 84 
Q 241 100 250 139 
Q 259 178 276 201 
Q 294 225 319 225 
Q 709 225 863 269 
Q 947 297 984 441 
L 1863 3956 
Q 1875 4019 1875 4044 
Q 1875 4113 1797 4122 
Q 1678 4147 1338 4147 
Q 1275 4147 1275 4231 
Q 1278 4247 1287 4286 
Q 1297 4325 1314 4348 
Q 1331 4372 1356 4372 
L 4738 4372 
Q 4800 4372 4800 4288 
L 4647 2963 
Q 4647 2944 4625 2925 
Q 4603 2906 4581 2906 
L 4525 2906 
Q 4459 2906 4459 2988 
Q 4500 3278 4500 3463 
Q 4500 3781 4362 3931 
Q 4225 4081 4015 4114 
Q 3806 4147 3438 4147 
L 2753 4147 
Q 2578 4147 2522 4117 
Q 2466 4088 2419 3928 
L 2009 2297 
L 2491 2297 
Q 2728 2297 2875 2322 
Q 3022 2347 3119 2419 
Q 3216 2491 3280 2627 
Q 3344 2763 3397 2988 
Q 3416 3047 3463 3047 
L 3519 3047 
Q 3584 3047 3584 2963 
L 3194 1381 
Q 3166 1325 3128 1325 
L 3072 1325 
Q 3009 1325 3009 1409 
Q 3025 1475 3034 1519 
Q 3044 1563 3058 1645 
Q 3072 1728 3072 1791 
Q 3072 1975 2909 2025 
Q 2747 2075 2484 2075 
L 1959 2075 
L 1544 416 
Q 1528 353 1528 353 
Q 1528 278 1575 269 
Q 1741 225 2228 225 
Q 2291 225 2291 141 
Q 2269 50 2256 25 
Q 2244 0 2181 0 
L 300 0 
z
" transform="scale(0.015625)"/>
       <path id="NimbusRoman-Regular-5b" d="M 1914 4077 
L 1914 4237 
L 563 4237 
L 563 -998 
L 1914 -998 
L 1914 -838 
L 1363 -838 
C 1146 -832 1056 -736 1050 -506 
L 1050 3795 
C 1056 4000 1126 4070 1338 4077 
L 1914 4077 
z
" transform="scale(0.015625)"/>
       <path id="NimbusRoman-Regular-4e" d="M 4525 4237 
L 3021 4237 
L 3021 4115 
C 3533 4083 3616 3974 3635 3296 
L 3635 1139 
L 1171 4237 
L 77 4237 
L 77 4115 
C 352 4115 442 4064 698 3763 
L 698 941 
C 685 262 602 154 77 122 
L 77 0 
L 1581 0 
L 1581 122 
C 1088 147 992 282 979 941 
L 979 3450 
L 3808 -70 
L 3917 -70 
L 3917 3296 
C 3936 3962 4019 4070 4525 4115 
L 4525 4237 
z
" transform="scale(0.015625)"/>
       <path id="NimbusRoman-Regular-5d" d="M 218 -838 
L 218 -998 
L 1568 -998 
L 1568 4237 
L 218 4237 
L 218 4077 
L 768 4077 
C 986 4070 1075 3974 1082 3744 
L 1082 -557 
C 1075 -762 1005 -832 794 -838 
L 218 -838 
z
" transform="scale(0.015625)"/>
      </defs>
      <use xlink:href="#NimbusRoman-Regular-4d"/>
      <use xlink:href="#NimbusRoman-Regular-65" transform="translate(88.899994 0)"/>
      <use xlink:href="#NimbusRoman-Regular-61" transform="translate(133.299988 0)"/>
      <use xlink:href="#NimbusRoman-Regular-6e" transform="translate(177.699982 0)"/>
      <use xlink:href="#NimbusRoman-Regular-20" transform="translate(227.699966 0)"/>
      <use xlink:href="#Cmsy10-6a" transform="translate(252.699951 0)"/>
      <use xlink:href="#Cmmi10-65" transform="translate(280.385498 0)"/>
      <use xlink:href="#Cmmi10-46" transform="translate(326.869873 -17.00625) scale(0.7)"/>
      <use xlink:href="#Cmsy10-6a" transform="translate(378.261865 0)"/>
      <use xlink:href="#NimbusRoman-Regular-20" transform="translate(405.947412 0)"/>
      <use xlink:href="#NimbusRoman-Regular-5b" transform="translate(430.947397 0)"/>
      <use xlink:href="#NimbusRoman-Regular-4e" transform="translate(464.247385 0)"/>
      <use xlink:href="#NimbusRoman-Regular-5d" transform="translate(536.447366 0)"/>
     </g>
    </g>
   </g>
   <g id="LineCollection_1">
    <path d="M 52.03448 92.122282 
L 52.03448 92.122282 
" clip-path="url(#pb48f8f9151)" style="fill: none; stroke: #000000; stroke-width: 0.8"/>
    <path d="M 126.57976 112.724674 
L 126.57976 112.724674 
" clip-path="url(#pb48f8f9151)" style="fill: none; stroke: #000000; stroke-width: 0.8"/>
    <path d="M 201.12504 6.672541 
L 201.12504 6.672541 
" clip-path="url(#pb48f8f9151)" style="fill: none; stroke: #000000; stroke-width: 0.8"/>
   </g>
   <g id="line2d_9">
    <defs>
     <path id="ma5d40ee200" d="M 3 0 
L -3 -0 
" style="stroke: #000000"/>
    </defs>
    <g clip-path="url(#pb48f8f9151)">
     <use xlink:href="#ma5d40ee200" x="52.03448" y="92.122282" style="fill: #1f77b4; stroke: #000000"/>
     <use xlink:href="#ma5d40ee200" x="126.57976" y="112.724674" style="fill: #1f77b4; stroke: #000000"/>
     <use xlink:href="#ma5d40ee200" x="201.12504" y="6.672541" style="fill: #1f77b4; stroke: #000000"/>
    </g>
   </g>
   <g id="line2d_10">
    <g clip-path="url(#pb48f8f9151)">
     <use xlink:href="#ma5d40ee200" x="52.03448" y="92.122282" style="fill: #1f77b4; stroke: #000000"/>
     <use xlink:href="#ma5d40ee200" x="126.57976" y="112.724674" style="fill: #1f77b4; stroke: #000000"/>
     <use xlink:href="#ma5d40ee200" x="201.12504" y="6.672541" style="fill: #1f77b4; stroke: #000000"/>
    </g>
   </g>
   <g id="patch_6">
    <path d="M 24.08 118.523364 
L 24.08 1.08 
" style="fill: none; stroke: #000000; stroke-width: 0.8; stroke-linejoin: miter; stroke-linecap: square"/>
   </g>
   <g id="patch_7">
    <path d="M 229.07952 118.523364 
L 229.07952 1.08 
" style="fill: none; stroke: #000000; stroke-width: 0.8; stroke-linejoin: miter; stroke-linecap: square"/>
   </g>
   <g id="patch_8">
    <path d="M 24.08 118.523364 
L 229.07952 118.523364 
" style="fill: none; stroke: #000000; stroke-width: 0.8; stroke-linejoin: miter; stroke-linecap: square"/>
   </g>
   <g id="patch_9">
    <path d="M 24.08 1.08 
L 229.07952 1.08 
" style="fill: none; stroke: #000000; stroke-width: 0.8; stroke-linejoin: miter; stroke-linecap: square"/>
   </g>
   <g id="text_10">
    <!-- 1.88 -->
    <g transform="translate(46.78448 90.67986) scale(0.06 -0.06)">
     <defs>
      <path id="NimbusRoman-Regular-31" d="M 755 0 
L 2522 0 
L 2522 96 
C 2029 96 1920 166 1914 474 
L 1914 4314 
L 1862 4326 
L 710 3744 
L 710 3654 
C 960 3750 1114 3795 1171 3795 
C 1306 3795 1363 3699 1363 3494 
L 1363 595 
C 1350 192 1242 102 755 96 
L 755 0 
z
" transform="scale(0.015625)"/>
      <path id="NimbusRoman-Regular-2e" d="M 800 640 
C 608 640 448 480 448 275 
C 448 90 608 -70 794 -70 
C 992 -70 1158 83 1158 275 
C 1158 474 992 640 800 640 
z
" transform="scale(0.015625)"/>
     </defs>
     <use xlink:href="#NimbusRoman-Regular-31"/>
     <use xlink:href="#NimbusRoman-Regular-2e" transform="translate(49.999985 0)"/>
     <use xlink:href="#NimbusRoman-Regular-38" transform="translate(74.999969 0)"/>
     <use xlink:href="#NimbusRoman-Regular-38" transform="translate(124.999954 0)"/>
    </g>
   </g>
   <g id="text_11">
    <!-- 0.41 -->
    <g transform="translate(121.32976 111.282252) scale(0.06 -0.06)">
     <use xlink:href="#NimbusRoman-Regular-30"/>
     <use xlink:href="#NimbusRoman-Regular-2e" transform="translate(49.999985 0)"/>
     <use xlink:href="#NimbusRoman-Regular-34" transform="translate(74.999969 0)"/>
     <use xlink:href="#NimbusRoman-Regular-31" transform="translate(124.999954 0)"/>
    </g>
   </g>
   <g id="text_12">
    <!-- 7.98 -->
    <g transform="translate(195.87504 5.230119) scale(0.06 -0.06)">
     <defs>
      <path id="NimbusRoman-Regular-37" d="M 2874 4237 
L 506 4237 
L 128 3296 
L 237 3245 
C 499 3674 621 3757 979 3763 
L 2368 3763 
L 1101 -51 
L 1517 -51 
L 2874 4134 
L 2874 4237 
z
" transform="scale(0.015625)"/>
      <path id="NimbusRoman-Regular-39" d="M 378 -141 
C 1094 -58 1446 64 1882 378 
C 2547 864 2938 1658 2938 2522 
C 2938 3578 2355 4326 1523 4326 
C 762 4326 192 3680 192 2816 
C 192 2035 653 1517 1344 1517 
C 1696 1517 1965 1619 2304 1882 
C 2042 838 1331 154 358 -13 
L 378 -141 
z
M 2317 2272 
C 2317 2144 2291 2086 2221 2029 
C 2048 1882 1805 1792 1574 1792 
C 1088 1792 781 2272 781 3034 
C 781 3398 883 3782 1018 3949 
C 1126 4077 1286 4147 1472 4147 
C 2029 4147 2317 3597 2317 2522 
L 2317 2272 
z
" transform="scale(0.015625)"/>
     </defs>
     <use xlink:href="#NimbusRoman-Regular-37"/>
     <use xlink:href="#NimbusRoman-Regular-2e" transform="translate(49.999985 0)"/>
     <use xlink:href="#NimbusRoman-Regular-39" transform="translate(74.999969 0)"/>
     <use xlink:href="#NimbusRoman-Regular-38" transform="translate(124.999954 0)"/>
    </g>
   </g>
  </g>
 </g>
 <defs>
  <clipPath id="pb48f8f9151">
   <rect x="24.08" y="1.08" width="204.99952" height="117.443364"/>
  </clipPath>
 </defs>
</svg>
